<svg width="1049" height="876" viewBox="0 0 1049 876" fill="none" xmlns="http://www.w3.org/2000/svg">
<g opacity="0.4">
<path d="M673.611 -508.619C616.126 -503.741 552.837 -463.14 504.864 -371.412C640.942 -346.31 731.032 -295.008 854.374 -186.671C905.123 -280.941 830.187 -517.601 673.611 -508.619Z" fill="white"/>
<path d="M991.956 100.575C820.08 -72.5165 677.006 -146.645 525.879 -171.198C281.927 -210.833 49.8513 -66.7037 9.53546 258.985C-30.5996 578.718 51.3815 878.631 534.683 957.151L1924.75 1182.99C2082.01 1208.54 2186.19 1081.05 2214.97 903.891C2210.63 1076.04 2247.72 1235.46 2439.5 1266.62L2694.96 1308.13C2927.41 1345.89 3032.49 1178.89 3072.53 932.47C3105.34 730.525 3164.96 601.03 3319.15 626.082C3714.23 690.27 4109.46 1528.96 4451.84 1592.81C4622.44 1623.52 4731.94 1482.68 4832.17 1345.56L4823.91 1338.23C4787.14 1346.48 4742.11 1347.39 4698.38 1340.29C4384.62 1289.31 3951.12 390.53 3517.68 320.111C3174.77 264.399 3087.72 577.257 3045.55 836.796C3022.69 977.501 2974.41 983.875 2747.34 946.983L2578.57 919.563C2360.7 884.166 2219.3 872.418 2256.05 699.548C2278.12 597.625 2225.61 448.073 2375.05 429.7L2376.35 421.681C2269.44 381.862 2322.89 322.047 2207.41 189.546L2198.97 188.175C2170.32 345.149 2174.85 482.073 2206.13 677.221C2221.31 767.984 2165.84 852.508 1994 824.59L465.082 576.19C182.773 530.324 8.771 462.395 30.3281 329.709C36.132 293.986 54.865 251.384 104.87 219.849C170.934 176.706 298.188 149.49 418.043 162.977C837.033 210.845 993.734 608.202 1325.14 662.045C1398.02 673.886 1457.84 601.294 1544.19 496.344L1539 489.514C1523.47 492.979 1505.83 490.112 1491.25 487.744C1457.5 482.26 1414.96 458.139 1350.6 413.261C1368.91 276.307 1501.86 -222.152 1665.2 -384.184L1666.5 -392.204C1559.58 -432.023 1422.35 -508.195 1306.87 -640.696L1300.74 -641.693L1244.86 -244.452L1244.36 -240.432C1233.63 -154.035 1198.93 125.296 1302.58 379.269C1206.78 309.827 1096.71 202.151 991.956 100.575Z" fill="white"/>
</g>
</svg>
